<svg width="167" height="161" viewBox="0 0 167 161" fill="none" xmlns="http://www.w3.org/2000/svg">
<path d="M83.5 0.5C129.357 0.5 166.5 36.3344 166.5 80.5C166.5 124.666 129.357 160.5 83.5 160.5C37.6431 160.5 0.5 124.666 0.5 80.5C0.5 36.3344 37.6431 0.5 83.5 0.5ZM83.5 12.2773C44.4453 12.2773 12.7539 42.8047 12.7539 80.5C12.7539 118.195 44.4453 148.723 83.5 148.723C122.555 148.723 154.246 118.195 154.246 80.5C154.246 42.8047 122.555 12.2773 83.5 12.2773ZM119.785 80.3281L119.68 80.1934L95.8223 49.5264L94.9727 50.041L109.498 81.8662L108.21 98.0098L79.377 106.855L79.4639 107.83L111.066 111.638L119.164 122.047C109.14 130.098 96.2471 134.945 82.1748 134.945C70.8524 134.945 60.2936 131.807 51.3779 126.388L58.7725 110.096L58.0068 109.496L43.6787 120.797C40.3754 117.954 37.4141 114.75 34.8594 111.251L59.9971 85.9629L60.1162 85.8428L60.1377 85.6748L64.1143 55.0088L63.1904 54.6855L44.75 85.1621L25.2344 88.9248C24.6606 85.7741 24.3574 82.5324 24.3574 79.2227C24.3574 71.9966 25.785 65.0929 28.3818 58.7578L39.5811 63.0771L40.8125 63.5527L40.2051 62.3809L33.4092 49.2773C39.3815 40.2625 47.9723 33.0131 58.1504 28.5254L72.4404 41.1533L77.708 66.5459L78.6816 66.5693L85.3086 41.0137L85.3623 40.8066L85.249 40.624L81.3486 34.3555V23.5088C81.6235 23.5051 81.8989 23.501 82.1748 23.501C97.7024 23.501 111.796 29.3992 122.182 38.9951L116.154 59.917L117.025 60.3672L128.542 45.9336C135.735 55.2235 139.992 66.7432 139.992 79.2227C139.992 88.542 137.617 97.3254 133.421 105.045L119.785 96.8281V80.3281Z" fill="#1F2326" stroke="black"/>
</svg>
